<svg width="141" height="58" viewBox="0 0 141 58" fill="none" xmlns="http://www.w3.org/2000/svg">
<rect width="140.12" height="57.9445" rx="9.48182" fill="#CD2D26"/>
<path d="M52.0619 51.9859C51.54 52.5251 50.7225 52.8035 49.4876 52.8035H45.9043V40.4188H49.4876C50.7225 40.4188 51.54 40.697 52.0794 41.2187C52.6701 41.7927 52.8969 42.6972 52.8969 43.8801C52.8969 44.68 52.8273 45.3586 52.3055 45.8804C52.1389 46.0508 51.9448 46.1919 51.7314 46.2978C51.9576 46.4197 52.1315 46.5763 52.288 46.7328C52.8621 47.3763 52.8969 48.2982 52.8969 48.994C52.8969 50.3336 52.6881 51.3423 52.0619 51.9859ZM49.1223 42.6454H48.3743V45.2893H49.1223C50.0964 45.2893 50.4268 44.8891 50.4268 43.9673C50.4268 43.0277 50.1138 42.6454 49.1223 42.6454ZM49.1571 47.3766H48.3743V50.5772H49.1571C50.1485 50.5772 50.4268 50.1075 50.4268 48.9768C50.4268 47.8461 50.1138 47.3764 49.1571 47.3764V47.3766Z" fill="white"/>
<path d="M60.0291 52.8036L59.629 50.8728H56.7763L56.3763 52.8036H53.8018L56.9849 40.4188H59.4203L62.6034 52.8036H60.0291ZM58.2027 44.0537L57.246 48.6459H59.1594L58.2027 44.0537Z" fill="white"/>
<path d="M68.7608 52.8036L66.1342 46.7502V52.8036H63.6641V40.4188H65.821L68.3955 46.4719V40.4188H70.8654V52.8036H68.7608Z" fill="white"/>
<path d="M78.989 51.6033C78.4324 52.2468 77.6669 52.8036 76.2754 52.8036H72.7793V40.4188H76.2757C77.6672 40.4188 78.4326 40.9753 78.9892 41.6188C79.9806 42.767 79.9111 44.9934 79.9111 46.6111C79.9111 48.2288 79.9804 50.4553 78.989 51.6033ZM77.1451 43.1843C76.9886 42.8713 76.6754 42.6452 76.2231 42.6452H75.2492V50.5771H76.2231C76.6754 50.5771 76.9886 50.351 77.1451 50.0378C77.4405 49.4639 77.4405 47.9679 77.4405 46.5936C77.4405 45.2194 77.4408 43.7585 77.1451 43.1843Z" fill="white"/>
<path d="M87.4428 51.7078C86.8689 52.3861 86.1035 52.9428 84.712 52.9428C83.3205 52.9428 82.5898 52.3861 82.0158 51.7078C81.0243 50.5248 81.0938 48.2811 81.0938 46.6111C81.0938 44.9412 81.0243 42.6977 82.0158 41.5146C82.5898 40.8361 83.3203 40.2795 84.712 40.2795C86.1038 40.2795 86.8689 40.8361 87.4428 41.5146C88.4344 42.6973 88.3648 44.9413 88.3648 46.6111C88.3648 48.281 88.4344 50.5248 87.4428 51.7078ZM85.5643 42.993C85.4251 42.7148 85.1642 42.506 84.712 42.506C84.2599 42.506 84.0336 42.7152 83.8944 42.993C83.599 43.567 83.5638 45.1152 83.5638 46.6111C83.5638 48.1071 83.5987 49.6551 83.8944 50.2292C84.0336 50.5077 84.2597 50.7164 84.712 50.7164C85.1644 50.7164 85.4251 50.5072 85.5643 50.2292C85.8596 49.6553 85.8948 48.1072 85.8948 46.6111C85.8948 45.115 85.86 43.567 85.5643 42.993Z" fill="white"/>
<path d="M89.9121 52.8036V40.4188H92.3823V50.5771H95.6175V52.8036H89.9121Z" fill="white"/>
<path d="M34.7466 33.512C33.2305 34.9437 31.42 35.6595 28.9358 35.6595C25.5671 35.6595 23.7986 34.3122 22.4091 32.67C20.0094 29.8066 20.1773 24.4168 20.1773 20.3743C20.1773 16.3317 20.0094 10.8578 22.4091 7.99485C23.7986 6.3528 25.5671 5.00513 28.9358 5.00513C31.42 5.00513 33.2308 5.72099 34.7466 7.15272C36.3045 8.62642 37.2731 10.9845 37.3993 13.8474H31.42C31.378 13.0057 31.2944 12.1635 30.9568 11.532C30.6201 10.8161 30.0304 10.3949 28.9358 10.3949C27.8413 10.3949 27.2937 10.9004 26.9566 11.5739C26.2408 12.9634 26.1567 16.7111 26.1567 20.3324C26.1567 23.9537 26.2408 27.701 26.9566 29.0909C27.2937 29.7643 27.8408 30.2696 28.9358 30.2696C30.0308 30.2696 30.6622 29.8066 30.9991 29.0909C31.3358 28.459 31.42 27.617 31.4621 26.775H37.4414C37.3151 29.638 36.3045 32.0384 34.7466 33.512Z" fill="white"/>
<path d="M72.0117 33.4279C70.6643 34.7332 68.3904 35.6594 65.4851 35.6594C62.5376 35.6594 60.348 34.8174 59.0004 33.4697C57.5268 31.9961 57.0215 29.8906 57.0215 26.8167H63.0007C63.0007 28.0381 63.085 28.9224 63.6323 29.5539C63.9692 29.9328 64.5587 30.2695 65.4851 30.2695C66.4115 30.2695 67.0009 30.0169 67.3803 29.5117C67.8014 29.0064 67.9698 28.2062 67.9698 26.9853C67.9698 24.1219 67.5066 23.6167 65.3592 22.7325L61.5688 21.1744C58.5373 19.9112 57.2739 18.3113 57.2739 13.6372C57.2739 10.8581 58.1581 8.5423 59.969 6.9843C61.4007 5.76313 63.2112 5.08911 65.4851 5.08911C68.1378 5.08911 70.0754 5.76289 71.3799 6.9843C73.0221 8.50008 73.6958 10.9003 73.6958 13.9321H67.7168C67.7168 12.8793 67.7168 11.9108 67.2113 11.237C66.8746 10.7739 66.3693 10.4791 65.4851 10.4791C64.6427 10.4791 64.0956 10.816 63.7585 11.279C63.3796 11.7843 63.2533 12.4156 63.2533 13.4266C63.2533 15.3218 63.5902 15.8688 65.3166 16.5845L69.0642 18.1003C72.8537 19.6583 73.9487 21.3427 73.9487 26.7746C73.9487 29.8067 73.5698 31.9122 72.0117 33.4279Z" fill="white"/>
<path d="M75.5908 35.3231V5.34216H81.5701V35.3231H75.5908Z" fill="white"/>
<path d="M96.4341 35.3231L90.076 20.6692V35.3231H84.0967V5.34216H89.318L95.5499 19.9954V5.34216H101.529V35.3231H96.4341Z" fill="white"/>
<path d="M118.54 32.67C117.151 34.3122 115.298 35.6595 111.929 35.6595C108.561 35.6595 106.792 34.3122 105.403 32.67C103.004 29.8066 103.172 24.3746 103.172 20.3324C103.172 16.2902 103.003 10.8578 105.403 7.99485C106.792 6.3528 108.561 5.00513 111.929 5.00513C115.298 5.00513 117.151 6.3528 118.54 7.99485C120.94 10.8582 120.772 16.29 120.772 20.3324C120.772 24.3748 120.94 29.8066 118.54 32.67ZM113.993 11.5739C113.656 10.9004 113.025 10.3949 111.93 10.3949C110.835 10.3949 110.288 10.9004 109.951 11.5739C109.235 12.9634 109.151 16.7111 109.151 20.3324C109.151 23.9537 109.235 27.701 109.951 29.0909C110.288 29.7643 110.835 30.2696 111.93 30.2696C113.025 30.2696 113.656 29.7643 113.993 29.0909C114.709 27.701 114.793 23.9538 114.793 20.3324C114.793 16.711 114.709 12.9634 113.993 11.5739Z" fill="white"/>
<path d="M49.8215 5.34216H43.9267L36.2207 35.3231H42.4527L43.4212 30.649H50.3267L51.2952 35.3231H57.5272L49.8215 5.34216ZM43.6713 27.6554L42.6056 28.0633V18.1699C42.5441 16.4859 43.4826 15.5168 44.7018 15.3589C43.9518 16.078 43.6713 16.6387 43.6713 17.4199V27.6554ZM45.4254 27.8308L44.3597 28.2474V18.0647C44.294 16.3324 45.2325 15.3374 46.456 15.1748C45.706 15.9114 45.4254 16.4903 45.4254 17.2928V27.8308ZM47.0787 16.9551V27.8176L46.0174 28.2469V17.7533C45.9514 15.9641 46.8944 14.9379 48.1136 14.7714C47.2805 15.3374 47.0787 16.1263 47.0787 16.9551ZM51.1088 20.3844C51.1088 21.1344 50.2931 22.3184 48.3855 22.2877C49.9467 21.6036 50.0738 20.7266 50.1046 19.5426V15.6965C50.1046 14.3327 49.1047 14.5783 48.8854 14.5476C50.0081 14.052 51.0737 14.9072 51.1088 15.8767V20.3844Z" fill="white"/>
</svg>
